<?xml version="1.0" encoding="UTF-8" ?>
<!DOCTYPE svg PUBLIC "-//W3C//DTD SVG 1.1//EN" "http://www.w3.org/Graphics/SVG/1.1/DTD/svg11.dtd">
<svg width="550pt" height="465pt" viewBox="0 0 550 465" version="1.1" xmlns="http://www.w3.org/2000/svg">
<path fill="#005baa" d=" M 0.00 0.00 L 144.21 0.00 C 144.24 16.14 144.20 32.28 144.23 48.42 C 96.15 48.44 48.08 48.41 0.00 48.43 L 0.00 0.00 Z" />
<path fill="#ffffff" d=" M 144.21 0.00 L 481.65 0.00 C 480.99 0.49 479.67 1.48 479.01 1.98 C 440.14 40.79 401.33 79.67 362.43 118.45 C 361.59 119.45 360.19 120.40 360.54 121.92 C 360.49 137.34 360.92 152.75 360.65 168.17 C 400.50 208.46 440.85 248.25 480.97 288.27 C 503.66 288.20 526.36 288.30 549.06 288.21 C 501.21 240.03 453.02 192.18 405.04 144.12 C 451.32 98.02 497.46 51.77 543.70 5.63 C 545.37 3.92 547.48 2.44 548.11 0.00 L 550.00 0.00 L 550.00 462.86 C 546.85 455.39 544.59 447.59 541.59 440.06 C 540.70 437.75 538.78 436.13 536.96 434.58 C 539.37 433.65 541.89 432.67 543.65 430.69 C 548.13 425.95 548.25 418.27 545.27 412.72 C 542.17 407.53 535.76 405.65 530.05 405.66 C 523.42 405.67 516.79 405.60 510.17 405.73 C 510.26 425.09 510.16 444.45 510.22 463.81 C 513.89 463.77 517.56 463.78 521.23 463.87 C 521.62 455.62 521.36 447.35 521.35 439.09 C 525.14 438.56 530.02 439.25 531.51 443.38 C 534.06 450.06 535.80 457.03 538.18 463.78 C 542.12 463.76 546.06 463.77 550.00 463.90 L 550.00 465.00 L 0.00 465.00 L 0.00 168.37 C 48.07 168.36 96.14 168.37 144.21 168.36 C 144.21 152.33 144.26 136.30 144.19 120.27 C 96.12 120.27 48.06 120.25 0.00 120.28 L 0.00 48.43 C 48.08 48.41 96.15 48.44 144.23 48.42 C 144.20 32.28 144.24 16.14 144.21 0.00 Z" />
<path fill="#005baa" d=" M 481.65 0.00 L 548.11 0.00 C 547.48 2.44 545.37 3.92 543.70 5.63 C 497.46 51.77 451.32 98.02 405.04 144.12 C 453.02 192.18 501.21 240.03 549.06 288.21 C 526.36 288.30 503.66 288.20 480.97 288.27 C 440.85 248.25 400.50 208.46 360.65 168.17 C 360.92 152.75 360.49 137.34 360.54 121.92 C 360.19 120.40 361.59 119.45 362.43 118.45 C 401.33 79.67 440.14 40.79 479.01 1.98 C 479.67 1.48 480.99 0.49 481.65 0.00 Z" />
<path fill="#005baa" d=" M 0.00 120.28 C 48.06 120.25 96.12 120.27 144.19 120.27 C 144.26 136.30 144.21 152.33 144.21 168.36 C 96.14 168.37 48.07 168.36 0.00 168.37 L 0.00 120.28 Z" />
<path fill="#005baa" d=" M 192.41 120.39 C 212.27 120.10 232.13 120.36 252.00 120.26 C 266.94 119.91 281.88 123.92 294.86 131.29 C 311.84 140.92 325.28 156.58 332.17 174.85 C 338.96 192.73 339.22 212.94 333.14 231.06 C 326.38 251.32 311.48 268.66 292.58 278.57 C 279.88 285.34 265.41 288.43 251.07 288.26 C 231.56 288.25 212.05 288.22 192.55 288.27 C 192.47 272.22 192.46 256.16 192.55 240.11 C 212.36 240.27 232.18 240.12 252.00 240.19 C 261.09 240.28 270.30 237.28 277.08 231.13 C 284.36 224.84 288.85 215.52 289.34 205.93 C 289.74 197.70 287.14 189.37 282.20 182.79 C 275.50 173.70 264.28 168.04 252.96 168.36 C 232.81 168.38 212.66 168.32 192.51 168.39 C 192.42 152.39 192.62 136.39 192.41 120.39 Z" />
<path fill="#a3a1a2" d=" M 1.15 335.21 C 11.19 335.29 21.23 335.33 31.28 335.19 C 31.64 338.19 31.51 341.21 31.41 344.23 C 25.01 344.26 18.61 344.24 12.21 344.24 C 12.24 349.68 12.16 355.12 12.27 360.56 C 18.35 360.47 24.44 360.49 30.53 360.55 C 30.54 363.49 30.54 366.43 30.53 369.37 C 24.44 369.39 18.35 369.43 12.26 369.35 C 12.19 378.02 12.17 386.69 12.28 395.36 C 8.58 395.81 4.85 395.47 1.13 395.63 C 1.09 375.49 1.05 355.35 1.15 335.21 Z" />
<path fill="#a3a1a2" d=" M 55.47 335.50 C 63.28 333.01 72.54 334.63 78.48 340.47 C 84.86 346.88 87.02 356.29 86.88 365.08 C 87.06 374.06 85.06 383.81 78.47 390.36 C 69.79 398.97 53.93 398.48 46.04 389.03 C 38.70 380.38 37.80 368.02 39.37 357.22 C 40.60 347.95 46.12 338.43 55.47 335.50 Z" />
<path fill="#a3a1a2" d=" M 94.53 335.52 C 98.95 334.93 103.44 335.42 107.89 335.27 C 113.36 347.78 118.55 360.42 123.95 372.98 C 125.18 375.76 126.08 378.71 127.76 381.29 C 128.14 365.94 127.48 350.56 128.08 335.22 C 131.43 335.28 134.77 335.28 138.11 335.21 C 138.44 355.27 138.08 375.34 138.31 395.40 C 133.77 395.78 129.22 395.57 124.68 395.49 C 118.41 380.24 111.63 365.21 105.51 349.90 C 105.33 350.12 104.95 350.56 104.77 350.78 C 104.64 365.71 104.78 380.66 104.71 395.61 C 101.32 395.55 97.93 395.75 94.56 395.40 C 94.67 375.44 94.73 355.48 94.53 335.52 Z" />
<path fill="#a3a1a2" d=" M 147.18 335.26 C 157.65 335.78 168.88 333.56 178.63 338.47 C 186.00 342.05 190.28 349.91 191.33 357.80 C 192.44 366.63 192.06 376.27 187.13 383.98 C 182.70 391.16 174.25 395.00 166.04 395.50 C 159.77 395.72 153.49 395.47 147.21 395.63 C 147.12 375.51 147.18 355.38 147.18 335.26 Z" />
<path fill="#a3a1a2" d=" M 210.54 335.36 C 214.63 335.16 218.73 335.30 222.82 335.25 C 229.04 354.16 235.02 373.13 241.22 392.04 C 241.65 393.20 241.78 394.42 241.95 395.64 C 238.18 395.54 234.41 395.65 230.64 395.50 C 229.30 390.75 227.87 386.03 226.60 381.27 C 219.74 380.99 212.86 381.25 205.99 381.14 C 204.40 385.92 203.10 390.78 201.64 395.60 C 197.85 395.58 194.07 395.58 190.29 395.57 C 197.15 375.54 203.80 355.43 210.54 335.36 Z" />
<path fill="#a3a1a2" d=" M 248.94 335.21 C 260.91 335.32 272.87 335.25 284.84 335.26 C 284.51 339.29 285.90 343.85 283.37 347.40 C 275.86 360.47 268.45 373.60 261.01 386.71 C 269.09 386.73 277.18 386.69 285.26 386.72 C 285.29 389.61 285.33 392.51 285.39 395.40 C 273.02 395.84 260.62 395.43 248.23 395.60 C 248.58 391.36 247.03 386.55 249.78 382.86 C 257.17 370.02 264.42 357.11 271.81 344.27 C 264.13 344.20 256.46 344.29 248.79 344.23 C 248.73 341.22 248.63 338.21 248.94 335.21 Z" />
<path fill="#a3a1a2" d=" M 293.03 335.24 C 296.66 335.27 300.30 335.29 303.95 335.23 C 304.52 355.26 303.94 375.33 304.23 395.38 C 300.54 395.80 296.82 395.48 293.12 395.64 C 292.62 375.53 292.79 355.36 293.03 335.24 Z" />
<path fill="#a3a1a2" d=" M 328.37 335.50 C 335.78 333.17 344.50 334.41 350.42 339.63 C 356.25 344.70 358.87 352.47 359.59 359.96 C 360.28 368.98 359.62 378.70 354.52 386.46 C 350.62 392.70 343.33 396.59 335.99 396.47 C 328.34 396.74 320.79 392.71 316.76 386.21 C 311.39 377.56 310.96 366.78 312.30 356.96 C 313.54 347.75 319.10 338.39 328.37 335.50 Z" />
<path fill="#a3a1a2" d=" M 367.02 335.21 C 371.48 335.37 375.94 335.07 380.40 335.43 C 386.73 350.77 393.22 366.05 399.81 381.27 C 399.90 380.74 400.10 379.66 400.20 379.13 C 400.22 364.50 400.20 349.88 400.22 335.25 C 403.57 335.27 406.92 335.29 410.28 335.17 C 410.76 355.28 410.34 375.44 410.50 395.57 C 405.98 395.57 401.46 395.67 396.95 395.50 C 390.95 381.01 384.63 366.66 378.64 352.17 C 378.25 351.30 377.77 350.50 377.18 349.76 C 376.89 365.04 377.43 380.35 376.92 395.62 C 373.64 395.24 369.93 396.25 366.92 395.14 C 366.87 375.17 366.67 355.17 367.02 335.21 Z" />
<path fill="#a3a1a2" d=" M 417.28 335.27 C 427.82 335.26 438.36 335.29 448.90 335.25 C 449.26 338.19 449.23 341.15 449.09 344.10 C 442.21 344.45 435.31 344.13 428.43 344.26 C 428.44 349.47 428.52 354.69 428.38 359.90 C 434.87 360.46 441.40 360.00 447.91 360.15 C 447.93 363.06 447.93 365.98 447.91 368.89 C 441.40 369.01 434.87 368.73 428.39 369.18 C 428.50 375.02 428.46 380.85 428.41 386.69 C 435.57 386.83 442.73 386.54 449.88 386.83 C 449.88 389.76 449.86 392.70 449.82 395.63 C 438.97 395.52 428.12 395.59 417.27 395.60 C 417.28 375.49 417.27 355.38 417.28 335.27 Z" />
<path fill="#ffffff" d=" M 59.48 343.56 C 63.76 341.95 68.95 343.72 71.39 347.58 C 74.95 352.97 75.28 359.70 75.39 365.96 C 75.21 372.10 74.73 378.78 70.91 383.88 C 67.60 388.57 60.04 389.17 55.98 385.16 C 52.53 381.92 51.39 377.06 50.76 372.55 C 50.11 366.18 50.09 359.64 51.70 353.42 C 52.82 349.32 55.22 345.00 59.48 343.56 Z" />
<path fill="#ffffff" d=" M 332.39 343.53 C 336.26 342.43 340.87 343.24 343.46 346.53 C 347.65 351.67 348.01 358.69 348.32 365.03 C 348.11 371.45 347.77 378.43 343.85 383.82 C 340.58 388.55 332.92 389.23 328.89 385.14 C 325.10 381.50 323.94 376.03 323.47 371.00 C 323.25 364.19 322.84 357.06 325.55 350.64 C 326.80 347.53 329.14 344.65 332.39 343.53 Z" />
<path fill="#ffffff" d=" M 158.40 344.34 C 160.78 342.96 164.12 344.03 166.81 344.34 C 173.85 345.62 178.57 352.24 179.44 359.04 C 180.37 366.98 180.31 376.21 174.48 382.41 C 170.31 386.73 163.96 387.25 158.31 386.81 C 158.43 372.66 158.24 358.49 158.40 344.34 Z" />
<path fill="#fefefe" d=" M 214.92 349.99 C 215.35 348.38 215.92 346.79 216.79 345.36 C 219.20 354.33 221.63 363.29 224.05 372.26 C 218.83 372.66 213.59 372.35 208.36 372.44 C 210.48 364.93 212.79 357.49 214.92 349.99 Z" />
<path fill="#a3a1a2" d=" M 210.09 405.19 C 217.61 403.76 226.02 406.07 231.18 411.89 C 236.73 417.78 238.43 426.19 238.61 434.04 C 238.65 442.26 237.06 451.08 231.44 457.43 C 227.99 461.18 223.15 464.21 217.89 463.99 C 213.18 463.79 208.07 464.80 203.78 462.31 C 196.12 458.51 191.97 450.19 190.79 442.03 C 189.69 433.62 190.18 424.65 194.10 416.98 C 197.22 410.85 203.23 406.21 210.09 405.19 Z" />
<path fill="#a3a1a2" d=" M 358.51 408.53 C 365.95 403.43 375.83 404.18 384.02 406.89 C 384.64 409.82 383.61 412.90 383.67 415.90 C 378.69 414.23 373.16 412.33 367.98 414.25 C 363.71 415.78 362.66 422.04 366.00 425.01 C 371.41 429.50 378.78 431.16 383.69 436.35 C 387.63 440.42 387.96 446.67 386.83 451.94 C 385.43 458.75 378.82 463.97 371.91 463.97 C 367.61 463.99 363.32 464.04 359.03 463.90 C 357.06 463.63 354.64 463.43 353.27 461.88 C 353.23 458.75 353.69 455.63 353.79 452.51 C 358.86 455.28 364.81 456.73 370.55 455.43 C 374.83 454.11 376.83 448.91 375.25 444.88 C 370.41 437.71 359.89 437.35 355.08 429.98 C 350.50 423.39 351.69 413.15 358.51 408.53 Z" />
<path fill="#a3a1a2" d=" M 395.69 409.72 C 401.69 404.41 410.42 404.03 417.92 405.58 C 419.50 406.03 421.55 405.94 422.72 407.23 C 422.82 410.11 422.55 412.99 422.50 415.88 C 417.31 414.34 411.60 412.15 406.28 414.38 C 402.07 416.11 401.38 422.39 404.87 425.20 C 411.10 430.27 420.39 431.82 424.47 439.33 C 427.73 446.82 426.08 457.17 418.60 461.53 C 414.02 464.75 408.22 463.92 402.95 464.03 C 399.27 463.91 395.06 464.37 391.95 462.04 C 391.85 458.87 392.16 455.68 392.67 452.55 C 397.57 455.38 403.44 456.66 409.02 455.47 C 414.25 454.03 416.49 446.41 412.27 442.73 C 405.98 437.30 396.09 435.91 392.40 427.67 C 390.12 421.77 390.67 414.10 395.69 409.72 Z" />
<path fill="#a3a1a2" d=" M 1.04 405.70 C 7.69 405.64 14.34 405.64 20.98 405.68 C 25.70 405.92 31.00 406.97 34.12 410.86 C 37.09 414.54 37.07 419.68 36.37 424.11 C 35.53 428.57 31.74 431.57 27.77 433.24 C 30.15 434.87 33.13 435.64 34.99 437.97 C 39.21 442.90 39.16 450.54 36.00 456.01 C 32.96 461.13 26.85 463.68 21.07 463.74 C 14.41 463.88 7.76 463.73 1.10 463.81 C 1.04 444.44 1.18 425.07 1.04 405.70 Z" />
<path fill="#a3a1a2" d=" M 44.82 405.69 C 51.90 405.64 58.98 405.62 66.06 405.68 C 71.67 405.92 77.92 408.24 80.42 413.66 C 82.88 419.23 82.52 426.57 78.02 431.03 C 76.24 432.94 73.70 433.72 71.34 434.66 C 71.41 435.74 73.09 435.67 73.69 436.37 C 75.47 437.78 76.30 440.01 77.08 442.08 C 79.65 449.31 82.18 456.56 84.83 463.76 C 80.83 463.52 76.50 464.39 72.69 463.38 C 70.35 456.69 68.66 449.76 66.08 443.16 C 64.50 439.18 59.85 438.72 56.15 439.09 C 56.07 447.34 56.51 455.61 55.93 463.83 C 52.26 463.77 48.59 463.79 44.92 463.81 C 44.69 444.44 44.88 425.06 44.82 405.69 Z" />
<path fill="#a3a1a2" d=" M 89.41 443.97 C 89.50 431.18 89.24 418.38 89.55 405.60 C 93.18 405.68 96.81 405.69 100.44 405.59 C 100.87 419.04 100.42 432.51 100.66 445.97 C 100.77 449.61 102.07 453.83 105.70 455.40 C 108.49 456.06 111.51 456.09 114.30 455.38 C 117.85 453.74 119.08 449.62 119.28 446.01 C 119.74 432.54 119.02 419.03 119.64 405.57 C 123.22 405.72 126.80 405.70 130.38 405.58 C 130.87 416.40 130.45 427.26 130.59 438.10 C 130.60 443.78 130.89 449.79 128.18 454.99 C 125.48 460.19 119.98 464.27 113.94 464.00 C 108.65 463.73 102.79 465.00 98.10 461.84 C 91.88 458.31 89.20 450.83 89.41 443.97 Z" />
<path fill="#a3a1a2" d=" M 139.34 463.77 C 139.49 444.38 139.08 424.96 139.55 405.58 C 143.78 405.69 148.02 405.76 152.25 405.53 C 153.55 407.45 154.42 409.62 155.32 411.76 C 160.61 423.84 165.96 435.89 171.22 447.99 C 171.61 448.74 172.09 449.44 172.64 450.10 C 172.53 435.30 172.61 420.51 172.60 405.71 C 176.03 405.63 179.46 405.61 182.89 405.74 C 182.77 425.09 182.86 444.44 182.84 463.78 C 178.36 463.77 173.87 463.85 169.39 463.73 C 162.73 448.83 156.45 433.73 149.46 418.98 C 149.51 433.81 149.27 448.64 149.59 463.46 C 146.22 464.15 142.75 463.67 139.34 463.77 Z" />
<path fill="#a3a1a2" d=" M 265.44 405.68 C 269.11 405.66 272.79 405.68 276.46 405.61 C 276.81 413.57 276.35 421.55 276.69 429.51 C 283.05 422.08 287.99 413.48 293.90 405.66 C 298.15 405.69 302.40 405.58 306.66 405.76 C 299.99 414.95 293.14 424.01 286.29 433.07 C 293.56 443.35 301.25 453.34 308.23 463.81 C 303.80 463.83 299.37 463.71 294.94 463.88 C 288.62 455.14 283.25 445.70 276.66 437.17 C 276.49 446.03 276.59 454.90 276.61 463.76 C 272.96 463.80 269.30 463.75 265.66 463.89 C 265.16 444.50 265.57 425.08 265.44 405.68 Z" />
<path fill="#a3a1a2" d=" M 314.04 405.72 C 324.68 405.61 335.32 405.66 345.95 405.70 C 345.89 408.57 345.88 411.45 345.96 414.32 C 339.08 414.48 332.20 414.37 325.33 414.39 C 325.33 419.45 325.32 424.51 325.33 429.57 C 331.84 429.63 338.36 429.35 344.86 429.72 C 344.75 432.51 344.74 435.31 344.81 438.11 C 338.31 438.45 331.80 438.15 325.30 438.28 C 325.53 443.98 324.96 449.71 325.60 455.39 C 332.64 455.18 339.68 455.36 346.72 455.27 C 346.76 458.10 346.78 460.94 346.76 463.79 C 335.88 463.80 325.00 463.76 314.12 463.81 C 314.04 444.45 314.18 425.08 314.04 405.72 Z" />
<path fill="#a3a1a2" d=" M 433.38 406.13 C 436.72 404.95 440.85 406.01 444.49 405.68 C 444.61 422.23 444.26 438.79 444.65 455.32 C 451.19 455.25 457.73 455.38 464.27 455.22 C 464.56 458.09 464.51 460.97 464.33 463.85 C 454.00 463.70 443.67 463.86 433.34 463.78 C 433.40 444.56 433.30 425.34 433.38 406.13 Z" />
<path fill="#a3a1a2" d=" M 470.37 463.78 C 470.54 444.39 470.12 424.97 470.57 405.59 C 481.17 405.78 491.76 405.58 502.36 405.67 C 502.39 408.56 502.41 411.45 502.40 414.35 C 495.44 414.54 488.47 414.20 481.51 414.52 C 481.63 419.49 481.60 424.46 481.53 429.44 C 488.09 429.73 494.66 429.43 501.22 429.61 C 501.24 432.47 501.23 435.34 501.22 438.21 C 494.73 438.27 488.25 438.31 481.76 438.19 C 481.35 443.86 481.65 449.56 481.62 455.25 C 488.64 455.42 495.67 455.17 502.69 455.35 C 503.88 457.84 502.92 461.04 503.04 463.81 C 492.15 463.78 481.25 463.79 470.37 463.78 Z" />
<path fill="#a3a1a2" d=" M 510.17 405.73 C 516.79 405.60 523.42 405.67 530.05 405.66 C 535.76 405.65 542.17 407.53 545.27 412.72 C 548.25 418.27 548.13 425.95 543.65 430.69 C 541.89 432.67 539.37 433.65 536.96 434.58 C 538.78 436.13 540.70 437.75 541.59 440.06 C 544.59 447.59 546.85 455.39 550.00 462.86 L 550.00 463.90 C 546.06 463.77 542.12 463.76 538.18 463.78 C 535.80 457.03 534.06 450.06 531.51 443.38 C 530.02 439.25 525.14 438.56 521.35 439.09 C 521.36 447.35 521.62 455.62 521.23 463.87 C 517.56 463.78 513.89 463.77 510.22 463.81 C 510.16 444.45 510.26 425.09 510.17 405.73 Z" />
<path fill="#ffffff" d=" M 211.44 413.55 C 215.30 412.46 219.76 413.55 222.32 416.74 C 226.52 421.79 226.78 428.72 226.99 434.98 C 226.78 441.21 226.39 448.13 222.09 453.06 C 218.31 457.46 210.67 457.54 206.90 453.10 C 202.65 448.51 202.22 441.88 201.89 435.95 C 201.92 430.38 202.20 424.57 204.71 419.48 C 206.06 416.73 208.42 414.37 211.44 413.55 Z" />
<path fill="#fefefe" d=" M 11.68 413.72 C 15.59 413.68 20.06 412.96 23.36 415.61 C 27.82 419.33 26.10 427.57 20.62 429.39 C 17.75 430.11 14.74 429.77 11.80 429.85 C 11.56 424.48 11.77 419.10 11.68 413.72 Z" />
<path fill="#ffffff" d=" M 56.20 414.13 C 59.51 413.76 62.91 413.83 66.12 414.74 C 72.09 417.25 71.65 427.30 65.87 429.83 C 62.85 431.20 59.39 431.03 56.15 430.90 C 56.23 425.31 56.17 419.72 56.20 414.13 Z" />
<path fill="#ffffff" d=" M 521.37 414.18 C 524.61 414.18 527.91 413.87 531.10 414.59 C 537.51 416.86 537.11 427.50 531.01 429.93 C 527.97 431.20 524.57 431.01 521.35 430.84 C 521.45 425.28 521.42 419.73 521.37 414.18 Z" />
<path fill="#ffffff" d=" M 11.75 437.80 C 15.23 437.76 18.86 437.51 22.18 438.76 C 28.43 441.29 28.55 451.54 22.62 454.51 C 19.23 456.17 15.28 455.54 11.64 455.41 C 11.78 449.54 11.62 443.67 11.75 437.80 Z" />
</svg>
